<?xml version="1.0" encoding="utf-8"?>
<!-- Generator: Adobe Illustrator 22.0.1, SVG Export Plug-In . SVG Version: 6.00 Build 0)  -->
<svg version="1.1" id="Layer_1" xmlns="http://www.w3.org/2000/svg" xmlns:xlink="http://www.w3.org/1999/xlink" x="0px" y="0px"
	 viewBox="0 0 629 625" style="enable-background:new 0 0 629 625;" xml:space="preserve">
<style type="text/css">
	.st0{opacity:0.1215;}
	.st1{opacity:0.1805;fill:#FFFFFF;enable-background:new    ;}
</style>
<title>bg</title>
<desc>Created with Sketch.</desc>
<g id="Page-1" class="st0">
	<g id="bg">
		<g id="_x30_0">
			<path id="Fill-2" class="st1" d="M319.2,108.1c-0.7,0-1.4,0-2.1-0.1c-15.7-1.8-30.5-16.2-36-22c4.1-15.2,16-45.2,34.1-45.2
				c0.2,0,0.5,0,0.7,0c21.7,0.9,34.3,35,36,43.6C348.5,90.2,334,108.1,319.2,108.1z M350.1,47.6c-9.4-12.9-21-20-33.5-20.6
				c-35.5-1.5-49.3,56.9-49.9,59.3l-0.7,3.4l2.1,2.9c0.9,1.1,22,27.1,47.4,30.1c1.2,0.1,2.5,1.3,3.7,1.3c25.6,0,45.2-30.7,46.5-35.4
				C367.4,83,360,61.1,350.1,47.6z"/>
			<path id="Fill-3" class="st1" d="M218.6,132c-0.6,0.4-1.2,0.8-1.8,1.2c-14.1,7.9-35.3,5.2-43.5,3.7c-6-14.7-14.9-46,0.1-56.8
				c0.2-0.1,0.4-0.3,0.6-0.4c18.5-12.2,50.2,7.7,56.9,13.6C231.6,100.2,230.8,123.2,218.6,132z M244.9,88.5
				c-2.2-5.5-21.9-18.6-38.5-23.6c-15.9-4.8-29.8-3.6-40.5,3.4c-30.3,20-5.3,75.2-4.2,77.5l1.5,3.2l3.5,1c1.4,0.3,35.1,8.6,57.9-4.1
				c1.1-0.6,3.8-0.5,3.8-1.3C248.8,129.3,246.7,93.1,244.9,88.5z"/>
			<path id="Fill-4" class="st1" d="M139.5,211.3c-0.4,0.6-0.8,1.2-1.3,1.7c-10.3,12.3-30.8,16.7-38.9,18.1
				c-10.6-12-29.6-39-19.5-54.3c0.1-0.2,0.3-0.4,0.4-0.6c12.8-17.8,49-9.4,57.2-5.9C140.5,176.4,147.7,198.8,139.5,211.3z
				 M148.4,160.8c-3.9-4.6-26.3-10.5-43.3-9.8c-16.3,0.7-28.8,6.5-36.2,16.8c-21.1,29.2,21,73.7,22.8,75.6l2.4,2.5l3.5-0.2
				c1.4-0.1,35.2-3.4,51.8-23.2c0.8-1,3.6-1.7,2.7-2.5C165.8,198.5,151.7,164.6,148.4,160.8z"/>
			<path id="Fill-5" class="st1" d="M105.6,318.7c-0.1,0.7-0.2,1.4-0.4,2.1c-4.1,15.3-20.4,28-27.1,32.6
				C63.6,347,35.4,330.9,38,312.8c0-0.2,0.1-0.5,0.1-0.7c4-21.4,39.7-29.1,48.5-29.5C91.9,287,107.7,304,105.6,318.7z M120.5,321.2
				c3.5-25.3-23.6-49.5-28.1-51.5c-5.4-2.4-27.8,1.7-42.6,9.5c-14.2,7.5-23,18-25.2,30.4c-6.6,35.1,49.6,57.3,51.9,58.2l3.2,1.2
				l3-1.7c1.2-0.7,29.9-17.9,36.5-42.7C119.5,323.4,122,321.4,120.5,321.2z"/>
			<path id="Fill-6" class="st1" d="M135,466c-15.1,4.5-46.9,10.2-56.2-5.8c-0.1-0.2-0.2-0.4-0.4-0.6
				c-10.4-19.6,12.3-49.1,18.8-55.2c6.8-0.1,29.6,3.1,37.2,16.1c0.4,0.6,0.7,1.3,1,1.9C141.9,437.3,137.2,458,135,466z M148.5,416.3
				c-0.5-1.2,0.6-4.4-1.2-3.6C134,390.4,98.3,389,93.6,390.4c-5.7,1.6-20.3,19.5-26.8,35.5c-6.2,15.3-6.4,29.3-0.4,40.6
				c17,32.1,74,12.9,76.4,12.1l3.3-1.1l1.3-3.3C147.8,472.7,159,440.3,148.5,416.3z"/>
			<path id="Fill-7" class="st1" d="M183.1,560.7c-0.2-0.1-0.4-0.2-0.7-0.3c-19.8-9.2-18.3-46.3-16.5-55c5.5-4.2,26-15.4,39.7-9.7
				c0.7,0.3,1.3,0.6,1.9,0.9c13.9,7.8,22.1,27.1,24.9,34.7C222.7,544,199.9,567.7,183.1,560.7z M247.1,530.3
				c-0.4-1.4-10-33.9-32.5-46.5c-1.1-0.6-2.2-3.6-3.1-2.2c-22.6-9.8-53.9,10.9-57,14.8c-3.7,4.7-5.2,27.7-1.3,44.3
				c3.7,15.9,11.8,27.1,23.2,32.4c32.5,15.2,68-34.5,69.5-36.6l2-2.9L247.1,530.3z"/>
			<path id="Fill-8" class="st1" d="M321.5,592.2c-0.2,0-0.5,0-0.7,0c-21.7-0.1-35.6-33.9-37.6-42.5c3.3-6,17.2-24.5,31.9-25
				c0.7,0,1.4,0,2.1,0c15.8,1.3,31.1,15.1,36.8,20.9C350.4,561,339.6,591.5,321.5,592.2z M366.7,538.6c-0.9-1.1-23.1-26.2-48.5-28.3
				c-1.2-0.1-3.8-2.4-3.8-0.7c-25.2,0.7-44,31.9-45.2,36.7c-1.4,5.8,6.9,27,17.2,40.2c9.9,12.7,21.8,19.4,34.3,19.5
				c35.6,0.3,47.3-58.8,47.7-61.3l0.6-3.4L366.7,538.6z"/>
			<path id="Fill-9" class="st1" d="M458.7,555.3c-0.2,0.1-0.4,0.3-0.6,0.4c-18.1,11.6-47.9-9.3-54.1-15.5
				c-0.5-6.8,1.1-29.9,13.1-38.3c0.6-0.4,1.2-0.8,1.8-1.1c13.8-7.4,34-4,41.8-2.3C466,513.5,473.5,545,458.7,555.3z M472.2,490
				l-1.3-3.2l-3.3-1.1c-1.3-0.4-33.2-9.7-55.5,2.3c-1.1,0.6-4.4-0.1-3.4,1.4c-20.7,14.2-19.6,50.7-18,55.3
				c1.9,5.6,20.1,19.1,35.8,24.6c15.1,5.3,28.5,4.6,39-2.1C495.3,548.4,473.1,492.4,472.2,490z"/>
			<path id="Fill-10" class="st1" d="M557.3,453c-0.1,0.2-0.3,0.4-0.4,0.6c-12.6,17.9-48.7,9.9-56.9,6.5c-3.1-6.2-10.5-28.5-2.4-41
				c0.4-0.6,0.8-1.2,1.3-1.7c10.1-12.3,30.5-17,38.5-18.4C548,410.9,567.2,437.6,557.3,453z M544.8,386.5l-2.4-2.5l-3.5,0.3
				c-1.4,0.2-35,3.9-51.4,23.8c-0.8,1-4.1,1.8-2.6,2.7c-14,20.9,1.1,55.2,4.3,58.9c4,4.5,26.2,10,43.2,9.1
				c16.2-0.9,28.6-6.8,35.9-17.2C589,432.3,546.6,388.3,544.8,386.5z"/>
			<path id="Fill-11" class="st1" d="M592,321.2c0,0.2-0.1,0.5-0.1,0.7c-3.6,21.4-39.1,29.8-47.8,30.4c-5.4-4.2-21.5-20.9-19.7-35.6
				c0.1-0.7,0.2-1.4,0.4-2.1c3.8-15.4,19.9-28.4,26.4-33.1C565.8,287.6,594.3,303.2,592,321.2z M552.6,267.2l-3.2-1.2l-3,1.7
				c-1.2,0.7-29.5,18.5-35.5,43.4c-0.3,1.2-3,3.2-1.2,3.5c-3.3,25.2,24.5,48.8,29,50.8c5.4,2.3,27.7-2.3,42.3-10.4
				c14.1-7.8,22.6-18.4,24.6-30.8C611.4,289,555,268,552.6,267.2z"/>
			<path id="Fill-12" class="st1" d="M535.4,228.6c-7.1-0.2-30.6-4.4-37.9-17.7c-0.3-0.6-0.7-1.3-0.9-1.9c-6.1-15-0.3-35.5,2.4-43.3
				c15.9-3.8,49.2-7.9,58.2,8.4c0.1,0.2,0.2,0.4,0.3,0.6C567.3,194.5,542.4,222.8,535.4,228.6z M570.2,168.3
				c-16.2-32.7-76.3-16.2-78.8-15.5l-3.4,1l-1.5,3.3c-0.6,1.3-13.7,33.1-3.9,57.4c0.5,1.2-0.6,4.6,1.1,3.7
				c12.3,23,49.9,25.8,54.9,24.7c6-1.3,21.9-18.6,29.4-34.1C575.2,193.8,575.9,179.8,570.2,168.3z"/>
			<path id="Fill-13" class="st1" d="M461.1,135.3c-6.1,3.3-28,11.3-40.8,3.6c-0.6-0.4-1.2-0.8-1.8-1.2
				c-12.6-9.7-17.8-29.9-19.5-37.8c11.5-11,37.6-30.9,53.2-21.5c0.2,0.1,0.4,0.3,0.6,0.4C471.1,90.8,464.2,127,461.1,135.3z
				 M478.8,102.4c-1.3-16.2-7.6-28.3-18.1-35.3c-29.9-19.8-72.4,23.8-74.2,25.6l-2.4,2.5l0.4,3.5c0.2,1.4,4.9,34.8,25.2,50.6
				c1,0.8,1.7,3.6,2.7,2.7c21.7,12.7,54.9-2.8,58.6-6.2C475.2,141.8,480.1,119.3,478.8,102.4z"/>
			<path id="Fill-14" class="st1" d="M245.2,59.6l-26.8-15.4l15.4-26.8l26.8,15.4L245.2,59.6z M229,0l-28,49l49,28l28-49L229,0z"/>
			<path id="Fill-15" class="st1" d="M99.1,123.3l-0.4-30.3l30.3-0.4l0.4,30.3L99.1,123.3z M141.2,80L86,80.8l0.8,55.2l55.2-0.8
				L141.2,80z"/>
			<path id="Fill-16" class="st1" d="M17.4,234.1l26.5-15.7l15.7,26.5l-26.5,15.7L17.4,234.1z M48.3,201L0,229.7L28.7,278L77,249.3
				L48.3,201z"/>
			<path id="Fill-17" class="st1" d="M45.2,409.3l-28.5-12l12.1-28.5l28.5,12L45.2,409.3z M22,352L0,404l52,22l22-52L22,352z"/>
			<path id="Fill-18" class="st1" d="M127.2,533.9l-31.1-0.7l0.7-31.1l31.1,0.7L127.2,533.9z M84.3,489L83,545.7l56.7,1.3l1.3-56.7
				L84.3,489z"/>
			<path id="Fill-19" class="st1" d="M221.4,585.4l27.2-15l15,27.2l-27.2,15L221.4,585.4z M253.6,553L204,580.4l27.4,49.6l49.6-27.4
				L253.6,553z"/>
			<path id="Fill-20" class="st1" d="M397.5,613.3l-26.8-13.7l13.7-26.8l26.8,13.7L397.5,613.3z M379.1,556L354,604.9l48.9,25.1
				l25.1-48.9L379.1,556z"/>
			<path id="Fill-21" class="st1" d="M505.1,533.9l-1-30.8l30.8-1l1,30.8L505.1,533.9z M547.2,489l-56.2,1.8l1.8,56.2l56.2-1.8
				L547.2,489z"/>
			<path id="Fill-22" class="st1" d="M572.7,384.7l26.6-13.9l13.9,26.6l-26.6,13.9L572.7,384.7z M604.6,354L556,379.4l25.4,48.6
				l48.6-25.4L604.6,354z"/>
			<path id="Fill-23" class="st1" d="M597.3,260.6l-26.9-15.3l15.3-26.9l26.9,15.3L597.3,260.6z M580.9,201L553,250.1l49.1,27.9
				l27.9-49.1L580.9,201z"/>
			<path id="Fill-24" class="st1" d="M533,130.9l-30.9-0.9l0.9-30.9l30.9,0.9L533,130.9z M490.7,86l-1.7,56.3l56.3,1.7l1.7-56.3
				L490.7,86z"/>
			<path id="Fill-25" class="st1" d="M370.7,30.5l26.7-13.8l13.8,26.7l-26.7,13.8L370.7,30.5z M402.8,0L354,25.2L379.2,74L428,48.8
				L402.8,0z"/>
		</g>
	</g>
</g>
</svg>
