<?xml version="1.0" encoding="utf-8"?>
<!-- Generator: Adobe Illustrator 22.0.1, SVG Export Plug-In . SVG Version: 6.00 Build 0)  -->
<svg version="1.1" id="Layer_1" xmlns="http://www.w3.org/2000/svg" xmlns:xlink="http://www.w3.org/1999/xlink" x="0px" y="0px"
	 viewBox="0 0 64 64" style="enable-background:new 0 0 64 64;" xml:space="preserve">
<style type="text/css">
	.st0{opacity:0.3;}
	.st1{fill:none;}
</style>
<title>clock</title>
<desc>Created with Sketch.</desc>
<g id="Page-1" class="st0">
	<g id="clock">
		<g id="ic_history" transform="translate(5.000000, 5.000000)">
			<g id="Icon-24px">
				<polygon id="Shape" class="st1" points="0,0 55,0 55,55 0,55 				"/>
				<path id="Shape_1_" d="M29.8,6.9c-11.4,0-20.6,9.2-20.6,20.6H2.3l8.9,8.9l0.2,0.3l9.3-9.2h-6.9c0-8.9,7.2-16,16-16s16,7.2,16,16
					s-7.2,16-16,16c-4.4,0-8.4-1.8-11.3-4.7l-3.3,3.3c3.7,3.7,8.9,6,14.6,6c11.4,0,20.6-9.2,20.6-20.6S41.2,6.9,29.8,6.9L29.8,6.9z
					 M27.5,18.3v11.5l9.8,5.8l1.6-2.8l-8-4.8v-9.7H27.5L27.5,18.3z"/>
			</g>
		</g>
	</g>
</g>
</svg>
