<?xml version="1.0" encoding="utf-8"?>
<!-- Generator: Adobe Illustrator 22.0.1, SVG Export Plug-In . SVG Version: 6.00 Build 0)  -->
<svg version="1.1" id="Layer_1" xmlns="http://www.w3.org/2000/svg" xmlns:xlink="http://www.w3.org/1999/xlink" x="0px" y="0px"
	 viewBox="0 0 64 64" style="enable-background:new 0 0 64 64;" xml:space="preserve">
<style type="text/css">
	.st0{opacity:0.3;}
</style>
<title>clock2</title>
<desc>Created with Sketch.</desc>
<g id="Page-1" class="st0">
	<g id="clock2">
		<g id="ic_schedule" transform="translate(10.000000, 10.000000)">
			<g id="Icon-24px">
				<path id="Shape" d="M22.5,0.9c-11.9,0-21.6,9.7-21.6,21.6s9.7,21.6,21.6,21.6c12,0,21.7-9.7,21.7-21.6S34.4,0.9,22.5,0.9
					L22.5,0.9z M22.5,39.8c-9.6,0-17.3-7.7-17.3-17.3S12.9,5.2,22.5,5.2s17.3,7.7,17.3,17.3S32.1,39.8,22.5,39.8L22.5,39.8z"/>
				<polygon id="Shape_1_" points="23.6,11.7 20.3,11.7 20.3,24.7 31.7,31.5 33.3,28.8 23.6,23 				"/>
			</g>
		</g>
	</g>
</g>
</svg>
