<?xml version="1.0" encoding="utf-8"?>
<!-- Generator: Adobe Illustrator 22.0.1, SVG Export Plug-In . SVG Version: 6.00 Build 0)  -->
<svg version="1.1" id="Layer_1" xmlns="http://www.w3.org/2000/svg" xmlns:xlink="http://www.w3.org/1999/xlink" x="0px" y="0px"
	 viewBox="0 0 64 64" style="enable-background:new 0 0 64 64;" xml:space="preserve">
<style type="text/css">
	.st0{opacity:0.3;}
</style>
<title>date</title>
<desc>Created with Sketch.</desc>
<g id="Page-1" class="st0">
	<g id="date">
		<g id="calendar-_x28_2_x29_" transform="translate(7.000000, 8.000000)">
			<path id="Shape" d="M1.9,46.9H48c1,0,1.8-0.8,1.8-1.8V5.4c0-1-0.8-1.8-1.8-1.8h-8.7V2.1c0-1-0.8-1.8-1.8-1.8s-1.8,0.8-1.8,1.8
				v1.5H14.4V2.1c0-1-0.8-1.8-1.8-1.8s-1.8,0.8-1.8,1.8v1.5h-9c-1,0-1.8,0.8-1.8,1.8v39.7C0.2,46.1,1,46.9,1.9,46.9z M3.7,7.2h7.2v1
				c0,1,0.8,1.8,1.8,1.8s1.8-0.8,1.8-1.8v-1h21.5v1c0,1,0.8,1.8,1.8,1.8s1.8-0.8,1.8-1.8v-1h7v4.6H3.7V7.2z M3.7,15.4h42.6v28H3.7
				V15.4z"/>
		</g>
	</g>
</g>
</svg>
