<?xml version="1.0" encoding="utf-8"?>
<!-- Generator: Adobe Illustrator 22.0.1, SVG Export Plug-In . SVG Version: 6.00 Build 0)  -->
<svg version="1.1" id="Layer_1" xmlns="http://www.w3.org/2000/svg" xmlns:xlink="http://www.w3.org/1999/xlink" x="0px" y="0px"
	 viewBox="0 0 64 64" style="enable-background:new 0 0 64 64;" xml:space="preserve">
<style type="text/css">
	.st0{fill:#C3C3C3;}
</style>
<title>facebook</title>
<desc>Created with Sketch.</desc>
<g id="Page-1">
	<g id="facebook">
		<g id="facebook-logo-_x28_2_x29_" transform="translate(20.000000, 10.000000)">
			<path id="Shape" class="st0" d="M24.1,0l-6,0C11.3,0,7,4.2,7,10.8v5h-6c-0.5,0-0.9,0.4-0.9,0.9v7.2c0,0.5,0.4,0.9,0.9,0.9h6v18.1
				c0,0.5,0.4,0.9,0.9,0.9h7.9c0.5,0,0.9-0.4,0.9-0.9V24.7h7c0.5,0,0.9-0.4,0.9-0.9l0-7.2c0-0.2-0.1-0.5-0.3-0.6
				c-0.2-0.2-0.4-0.3-0.7-0.3h-7.1v-4.2c0-2,0.5-3,3.3-3l4,0c0.5,0,0.9-0.4,0.9-0.9V0.9C25,0.4,24.6,0,24.1,0z"/>
		</g>
	</g>
</g>
</svg>
