<?xml version="1.0" encoding="utf-8"?>
<!-- Generator: Adobe Illustrator 22.0.1, SVG Export Plug-In . SVG Version: 6.00 Build 0)  -->
<svg version="1.1" id="Layer_1" xmlns="http://www.w3.org/2000/svg" xmlns:xlink="http://www.w3.org/1999/xlink" x="0px" y="0px"
	 viewBox="0 0 64 64" style="enable-background:new 0 0 64 64;" xml:space="preserve">
<style type="text/css">
	.st0{opacity:0.3;}
</style>
<title>linkedin_</title>
<desc>Created with Sketch.</desc>
<g id="Page-1" class="st0">
	<g id="linkedin_">
		<g id="linkedin-logo" transform="translate(7.000000, 9.000000)">
			<path id="LinkedIn" d="M50,28.3v17.9H39.3V29.5c0-4.2-1.6-7-5.4-7c-3,0-4.7,1.9-5.5,3.8c-0.3,0.7-0.4,1.6-0.4,2.5v17.4H17.3
				c0,0,0.1-28.2,0-31.1H28v4.4c0,0,0,0.1-0.1,0.1H28v-0.1c1.4-2.1,4-5.1,9.7-5.1C44.7,14.3,50,18.7,50,28.3z M6.1,0
				C2.4,0,0,2.3,0,5.4c0,3,2.3,5.4,5.9,5.4H6c3.7,0,6.1-2.4,6.1-5.4C12,2.3,9.7,0,6.1,0z M0.6,46.2h10.7V15H0.6V46.2z"/>
		</g>
	</g>
</g>
</svg>
