<svg xmlns="http://www.w3.org/2000/svg" xmlns:xlink="http://www.w3.org/1999/xlink" x="0px" y="0px" width="32" height="32" viewBox="0 0 32 32"><g class="nc-icon-wrapper" fill="#b7bbbe"><path data-cap="butt" data-color="color-2" fill="none" stroke="#b7bbbe" stroke-width="2" stroke-miterlimit="10" d="M25.53,27.583 c-0.185-3.257-2.042-4.29-4.758-5.195c-1.942-0.647-2.567-2.609-2.768-3.806" stroke-linejoin="round" stroke-linecap="round"></path> <path data-cap="butt" data-color="color-2" fill="none" stroke="#b7bbbe" stroke-width="2" stroke-miterlimit="10" d="M13.993,18.581 c-0.201,1.197-0.824,3.16-2.765,3.808c-2.716,0.905-4.59,1.925-4.774,5.182" stroke-linejoin="round" stroke-linecap="round"></path> <path data-color="color-2" fill="none" stroke="#b7bbbe" stroke-width="2" stroke-linecap="round" stroke-miterlimit="10" d="M16,19L16,19 c-2.761,0-5-2.239-5-5v-2c0-2.761,2.239-5,5-5h0c2.761,0,5,2.239,5,5v2C21,16.761,18.761,19,16,19z" stroke-linejoin="round"></path> <ellipse transform="matrix(0.0474 -0.9989 0.9989 0.0474 -0.7397 31.2244)" fill="none" stroke="#b7bbbe" stroke-width="2" stroke-linecap="round" stroke-miterlimit="10" cx="16" cy="16" rx="15" ry="15" stroke-linejoin="round"></ellipse></g></svg>