<?xml version="1.0" encoding="utf-8"?>
<!-- Generator: Adobe Illustrator 22.0.1, SVG Export Plug-In . SVG Version: 6.00 Build 0)  -->
<svg version="1.1" id="Layer_1" xmlns="http://www.w3.org/2000/svg" xmlns:xlink="http://www.w3.org/1999/xlink" x="0px" y="0px"
	 viewBox="0 0 64 64" style="enable-background:new 0 0 64 64;" xml:space="preserve">
<style type="text/css">
	.st0{fill:#E2574C;}
	.st1{fill:#B53629;}
	.st2{fill:#FFFFFF;}
</style>
<title>pdf_file</title>
<desc>Created with Sketch.</desc>
<g id="Page-1">
	<g id="pdf_file">
		<g id="pdf" transform="translate(10.000000, 7.000000)">
			<path id="Shape" class="st0" d="M3.2,0h27.3L45,14.3v33.4c0,1.8-1.4,3.2-3.2,3.2H3.2c-1.8,0-3.2-1.4-3.2-3.2V3.2
				C0,1.4,1.4,0,3.2,0z"/>
			<path id="Shape_1_" class="st1" d="M45,13.7H34.4c-1.7,0-3.1-1.4-3.1-3.1V0L45,13.7z"/>
			<path id="Shape_2_" class="st2" d="M32.5,23.4c0.5,0,0.8-0.5,0.8-0.9c0-0.5-0.3-0.9-0.8-0.9h-2.9c-0.6,0-0.9,0.5-0.9,1.1v7.7
				c0,0.7,0.4,1.1,0.9,1.1c0.5,0,0.9-0.4,0.9-1.1v-2.1h1.8c0.6,0,0.8-0.5,0.8-1c0-0.5-0.3-0.9-0.8-0.9h-1.8v-2.9H32.5z M22.6,21.5
				h-2.1c-0.6,0-1,0.4-1,1.1v7.7c0,0.8,0.6,1,1,1h2.3c2.7,0,4.4-1.9,4.4-4.7C27.1,23.5,25.5,21.5,22.6,21.5z M22.7,29.4h-1.3v-6h1.2
				c1.8,0,2.6,1.3,2.6,3C25.1,28.1,24.3,29.4,22.7,29.4z M14.8,21.5h-2.1c-0.6,0-0.9,0.4-0.9,1.1v7.7c0,0.7,0.4,1.1,0.9,1.1
				c0.5,0,0.9-0.4,0.9-1.1V28h1.3c1.6,0,3-1.2,3-3.2C17.9,22.8,16.6,21.5,14.8,21.5z M14.8,26.2h-1.2v-2.9h1.2
				c0.8,0,1.2,0.6,1.2,1.4C16,25.6,15.5,26.2,14.8,26.2z"/>
		</g>
	</g>
</g>
</svg>
