<?xml version="1.0" encoding="utf-8"?>
<!-- Generator: Adobe Illustrator 22.0.1, SVG Export Plug-In . SVG Version: 6.00 Build 0)  -->
<svg version="1.1" id="Layer_1" xmlns="http://www.w3.org/2000/svg" xmlns:xlink="http://www.w3.org/1999/xlink" x="0px" y="0px"
	 viewBox="0 0 64 64" style="enable-background:new 0 0 64 64;" xml:space="preserve">
<style type="text/css">
	.st0{opacity:0.4;}
</style>
<title>price</title>
<desc>Created with Sketch.</desc>
<g id="Page-1" class="st0">
	<g id="price">
		<g id="tag-_x28_5_x29_" transform="translate(12.000000, 12.000000)">
			<path id="Shape" d="M20.9,0L1.4,19.5c-1.8,1.8-1.8,4.8,0,6.6l12.5,12.5c0.9,0.9,2.1,1.4,3.3,1.4c0,0,0,0,0,0
				c1.3,0,2.4-0.5,3.3-1.4L40,19.1V0H20.9z M36.9,17.8L18.3,36.4c-0.3,0.3-0.7,0.5-1.1,0.5c0,0,0,0,0,0c-0.4,0-0.8-0.2-1.1-0.5
				L3.6,23.9c-0.6-0.6-0.6-1.6,0-2.2L22.1,3.1h14.7V17.8z"/>
			<circle id="Oval" cx="30" cy="10" r="2.7"/>
		</g>
	</g>
</g>
</svg>
