<?xml version="1.0" encoding="utf-8"?>
<!-- Generator: Adobe Illustrator 22.0.1, SVG Export Plug-In . SVG Version: 6.00 Build 0)  -->
<svg version="1.1" id="Layer_1" xmlns="http://www.w3.org/2000/svg" xmlns:xlink="http://www.w3.org/1999/xlink" x="0px" y="0px"
	 viewBox="0 0 64 64" style="enable-background:new 0 0 64 64;" xml:space="preserve">
<style type="text/css">
	.st0{fill:#FFFFFF;}
	.st1{fill:none;}
</style>
<title>search</title>
<desc>Created with Sketch.</desc>
<g id="Page-1">
	<g id="search">
		<g id="ic_search" transform="translate(7.000000, 7.000000)">
			<g id="Icon-24px">
				<path id="Shape" class="st0" d="M32.3,29.2h-1.6l-0.6-0.6c2-2.4,3.3-5.5,3.3-8.8c0-7.5-6.1-13.5-13.5-13.5S6.2,12.3,6.2,19.8
					s6.1,13.5,13.5,13.5c3.4,0,6.4-1.2,8.8-3.3l0.6,0.6v1.6l10.4,10.4l3.1-3.1L32.3,29.2L32.3,29.2z M19.8,29.2
					c-5.2,0-9.4-4.2-9.4-9.4s4.2-9.4,9.4-9.4s9.4,4.2,9.4,9.4S25,29.2,19.8,29.2L19.8,29.2z"/>
				<polygon id="Shape_1_" class="st1" points="0,0 50,0 50,50 0,50 				"/>
			</g>
		</g>
	</g>
</g>
</svg>
