<?xml version="1.0" encoding="utf-8"?>
<!-- Generator: Adobe Illustrator 22.0.1, SVG Export Plug-In . SVG Version: 6.00 Build 0)  -->
<svg version="1.1" id="Layer_1" xmlns="http://www.w3.org/2000/svg" xmlns:xlink="http://www.w3.org/1999/xlink" x="0px" y="0px"
	 viewBox="0 0 64 64" style="enable-background:new 0 0 64 64;" xml:space="preserve">
<style type="text/css">
	.st0{fill:#FFFFFF;}
</style>
<title>twitter</title>
<desc>Created with Sketch.</desc>
<g id="Page-1">
	<g id="twitter">
		<g id="twitter-logo-silhouette-_x28_2_x29_" transform="translate(10.000000, 15.000000)">
			<path id="Shape" class="st0" d="M42.3,4c-1.6,0.7-3.2,1.1-5,1.4c1.8-1.1,3.2-2.8,3.8-4.8c-1.7,1-3.5,1.7-5.5,2.1
				C34,1,31.8,0,29.3,0c-4.8,0-8.7,3.9-8.7,8.6c0,0.7,0.1,1.3,0.2,2c-7.2-0.4-13.6-3.8-17.9-9C2.2,2.8,1.8,4.3,1.8,5.9
				c0,3,1.5,5.6,3.9,7.2c-1.4,0-2.8-0.4-3.9-1.1v0.1c0,4.2,3,7.6,7,8.4c-0.7,0.2-1.5,0.3-2.3,0.3c-0.6,0-1.1-0.1-1.6-0.2
				c1.1,3.4,4.3,5.9,8.1,6c-3,2.3-6.7,3.7-10.8,3.7c-0.7,0-1.4,0-2.1-0.1C3.8,32.6,8.4,34,13.3,34C29.3,34,38,20.9,38,9.6l0-1.1
				C39.7,7.3,41.1,5.8,42.3,4z"/>
		</g>
	</g>
</g>
</svg>
