<?xml version="1.0" encoding="utf-8"?>
<!-- Generator: Adobe Illustrator 22.0.1, SVG Export Plug-In . SVG Version: 6.00 Build 0)  -->
<svg version="1.1" id="Layer_1" xmlns="http://www.w3.org/2000/svg" xmlns:xlink="http://www.w3.org/1999/xlink" x="0px" y="0px"
	 viewBox="0 0 64 64" style="enable-background:new 0 0 64 64;" xml:space="preserve">
<style type="text/css">
	.st0{fill:#C4C4C4;}
</style>
<title>twitter2</title>
<desc>Created with Sketch.</desc>
<g id="Page-1">
	<g id="twitter2">
		<g id="twitter-logo-silhouette-_x28_2_x29_" transform="translate(10.000000, 15.000000)">
			<path id="Shape" class="st0" d="M44,4.1c-1.6,0.7-3.4,1.2-5.2,1.4c1.9-1.1,3.3-2.8,4-4.8c-1.7,1-3.7,1.7-5.7,2.1
				c-1.6-1.7-4-2.8-6.6-2.8c-5,0-9,3.9-9,8.7c0,0.7,0.1,1.4,0.2,2C14.2,10.4,7.5,6.9,3.1,1.6C2.3,2.9,1.8,4.4,1.8,6
				c0,3,1.6,5.7,4,7.3c-1.5,0-2.9-0.4-4.1-1.1v0.1c0,4.2,3.1,7.8,7.2,8.6c-0.8,0.2-1.6,0.3-2.4,0.3c-0.6,0-1.1-0.1-1.7-0.2
				c1.1,3.5,4.5,6,8.4,6.1c-3.1,2.3-7,3.7-11.2,3.7c-0.7,0-1.4,0-2.2-0.1c4,2.5,8.7,3.9,13.8,3.9c16.6,0,25.7-13.3,25.7-24.8l0-1.1
				C41.3,7.4,42.8,5.8,44,4.1z"/>
		</g>
	</g>
</g>
</svg>
