<?xml version="1.0" encoding="utf-8"?>
<!-- Generator: Adobe Illustrator 22.0.1, SVG Export Plug-In . SVG Version: 6.00 Build 0)  -->
<svg version="1.1" id="Layer_1" xmlns="http://www.w3.org/2000/svg" xmlns:xlink="http://www.w3.org/1999/xlink" x="0px" y="0px"
	 viewBox="0 0 64 64" style="enable-background:new 0 0 64 64;" xml:space="preserve">
<style type="text/css">
	.st0{fill:#B2B2B2;}
</style>
<title>user</title>
<desc>Created with Sketch.</desc>
<g id="Page-1">
	<g id="user">
		<g id="Icon" transform="translate(10.000000, 10.000000)">
			<path id="Rectangle-873" class="st0" d="M38.6,38c0-10.1-7.9-18.3-17.7-18.3c-9.8,0-17.7,8.2-17.7,18.3v5.5
				c0,0.8,0.6,1.4,1.4,1.4s1.4-0.6,1.4-1.4V38c0-8.5,6.7-15.5,15-15.5c8.3,0,15,6.9,15,15.5v5.5c0,0.8,0.6,1.4,1.4,1.4
				c0.8,0,1.4-0.6,1.4-1.4V38L38.6,38z M30.4,9.8c0-5.4-4.3-9.8-9.5-9.8s-9.5,4.4-9.5,9.8s4.3,9.8,9.5,9.8S30.4,15.3,30.4,9.8
				L30.4,9.8z M14.1,9.8c0-3.9,3-7,6.8-7s6.8,3.1,6.8,7s-3,7-6.8,7S14.1,13.7,14.1,9.8L14.1,9.8z"/>
		</g>
	</g>
</g>
</svg>
