<?xml version="1.0" encoding="utf-8"?>
<!-- Generator: Adobe Illustrator 22.0.1, SVG Export Plug-In . SVG Version: 6.00 Build 0)  -->
<svg version="1.1" id="Layer_1" xmlns="http://www.w3.org/2000/svg" xmlns:xlink="http://www.w3.org/1999/xlink" x="0px" y="0px"
	 viewBox="0 0 64 64" style="enable-background:new 0 0 64 64;" xml:space="preserve">
<style type="text/css">
	.st0{fill:#B2B2B2;}
	.st1{fill:#F4B459;}
	.st2{fill:#D07C40;}
	.st3{fill:#475F6C;}
</style>
<title>zip_file</title>
<desc>Created with Sketch.</desc>
<g id="Page-1">
	<g id="zip_file">
		<g id="Icon" transform="translate(24.000000, 24.000000)">
			<path id="Rectangle-873" class="st0" d="M13.7,13.5c0-3.6-2.8-6.5-6.3-6.5C4,7,1.1,9.9,1.1,13.5v2c0,0.3,0.2,0.5,0.5,0.5
				s0.5-0.2,0.5-0.5v-2c0-3,2.4-5.5,5.3-5.5c2.9,0,5.3,2.5,5.3,5.5v2c0,0.3,0.2,0.5,0.5,0.5c0.3,0,0.5-0.2,0.5-0.5V13.5L13.7,13.5z
				 M10.8,3.5C10.8,1.6,9.3,0,7.4,0S4,1.6,4,3.5S5.6,7,7.4,7S10.8,5.4,10.8,3.5L10.8,3.5z M5,3.5C5,2.1,6.1,1,7.4,1s2.4,1.1,2.4,2.5
				S8.8,6,7.4,6S5,4.9,5,3.5L5,3.5z"/>
		</g>
		<g id="inbox" transform="translate(10.000000, 11.000000)">
			<polygon id="Shape" class="st1" points="8.3,12.8 35.7,12.8 44,20.2 0,20.2 			"/>
			<path id="Shape_1_" class="st2" d="M8.7,16.5h24.8l6.9,6.4c0,0-0.6,6.4-1.5,6.4H3.1c-0.8,0-1.2-6.4-1.2-6.4L8.7,16.5z"/>
			<path id="Shape_2_" class="st1" d="M30.2,23.8v2.6c0,1.4-1.2,2.6-2.7,2.6h-11c-1.5,0-2.7-1.2-2.7-2.6v-2.6H0v15.7
				c0,1.4,1.2,2.6,2.7,2.6h38.5c1.5,0,2.7-1.2,2.7-2.6V23.8H30.2z"/>
			<path id="Shape_3_" class="st3" d="M29.6,9.4h-3.7V1.3c0-0.8-0.5-1.3-1.3-1.3h-5.2c-0.8,0-1.3,0.5-1.3,1.3v8.1h-3.7
				c-1.4,0-2,0.9-1.3,2.2l7.6,7.7c0.7,1.2,1.8,1.2,2.6,0l7.6-7.7C31.5,10.4,31,9.4,29.6,9.4z"/>
		</g>
	</g>
</g>
</svg>
